<svg width="74" height="73" viewBox="0 0 74 73" fill="none" xmlns="http://www.w3.org/2000/svg">
<g clip-path="url(#clip0_50_416)">
<path d="M37.1247 0.52621C37.2638 0.525686 37.4028 0.525162 37.5461 0.524622C37.9488 0.52383 38.3516 0.525381 38.7543 0.527881C38.8745 0.527772 38.9947 0.527663 39.1186 0.527551C40.1068 0.539048 41.0711 0.571204 41.8565 1.21237C42.2058 1.70888 42.2337 2.1995 42.2024 2.79409C42.0855 3.37019 41.8588 3.60245 41.4199 3.99264C40.8865 4.25934 40.4957 4.30416 39.9044 4.26443C39.7472 4.25554 39.5899 4.24665 39.4279 4.23749C39.2589 4.22727 39.0899 4.21704 38.9159 4.20651C30.9767 3.83799 22.9299 6.16036 16.7539 11.2641C16.6738 11.3297 16.5938 11.3953 16.5113 11.4628C14.7093 12.9464 13.0441 14.541 11.6211 16.3969C11.5313 16.512 11.5313 16.512 11.4398 16.6293C10.3078 18.086 9.36585 19.6256 8.48433 21.2446C8.43122 21.3418 8.3781 21.439 8.32338 21.5392C4.39099 28.8253 3.62532 37.6958 5.97251 45.6032C7.20028 49.5723 9.01311 53.2796 11.6266 56.5232C11.8614 56.8304 12.0365 57.1073 12.1914 57.4594C12.2855 57.4594 12.3796 57.4594 12.4765 57.4594C12.5149 57.355 12.5533 57.2507 12.5929 57.1431C13.8675 54.1481 17.1309 51.5101 20.0332 50.188C20.1273 50.188 20.2214 50.188 20.3183 50.188C20.3183 50.0939 20.3183 49.9998 20.3183 49.9028C20.1626 49.8457 20.1626 49.8457 20.0036 49.7875C16.8675 48.4497 14.5989 45.1033 13.332 42.061C11.8957 38.1974 12.0506 33.9471 13.6611 30.1691C15.4882 26.2872 18.5754 23.3934 22.5946 21.8806C26.6077 20.4485 30.9145 20.7585 34.7577 22.549C38.4881 24.3601 41.2118 27.6243 42.5934 31.4963C43.8404 35.1916 43.691 39.4291 42.0113 42.9716C41.7797 43.436 41.5322 43.8902 41.2773 44.3423C41.1997 44.4827 41.1222 44.6231 41.0423 44.7678C39.8053 46.8555 37.8385 48.7422 35.7168 49.9028C35.6227 49.9028 35.5286 49.9028 35.4316 49.9028C35.4316 49.9969 35.4316 50.091 35.4316 50.188C35.556 50.226 35.6805 50.264 35.8087 50.3032C37.246 50.8136 38.4281 51.7655 39.5664 52.7544C39.6851 52.8523 39.8038 52.9503 39.9262 53.0512C41.5519 54.4333 42.7259 56.148 43.7011 58.0298C43.7787 58.179 43.8563 58.3282 43.9362 58.482C45.0881 60.8326 45.609 63.2895 45.5725 65.8983C45.5712 66.0748 45.5699 66.2513 45.5686 66.4332C45.5652 66.8639 45.5606 67.2944 45.5546 67.7251C50.3643 66.1885 54.7612 64.0504 58.4936 60.6051C58.7756 60.3466 59.0642 60.1014 59.358 59.8565C64.5598 55.2932 67.8202 48.3712 68.9375 41.6333C68.9644 41.4732 68.9914 41.3131 69.0192 41.1482C69.2946 39.28 69.2383 37.4184 69.206 35.5348C69.1991 35.1003 69.1949 34.6659 69.1909 34.2315C69.1862 34.0336 69.1862 34.0336 69.1815 33.8318C69.1744 32.9112 69.3247 32.3129 69.9444 31.5993C70.5599 31.2588 71.1016 31.2434 71.789 31.3676C72.2095 31.5542 72.3341 31.708 72.6445 32.0805C72.9174 32.9381 72.9733 33.7252 72.9725 34.6208C72.9737 34.8187 72.9737 34.8187 72.975 35.0206C72.9767 35.4456 72.9758 35.8705 72.9742 36.2955C72.9739 36.4405 72.9736 36.5855 72.9733 36.7349C72.9661 38.8232 72.9208 40.864 72.5019 42.9165C72.4736 43.061 72.4453 43.2056 72.4161 43.3546C71.1456 49.7068 68.2944 55.7963 63.8347 60.5444C63.5668 60.8308 63.3153 61.1232 63.065 61.4249C61.5724 63.1298 59.7906 64.551 57.9589 65.8716C57.8716 65.9347 57.7842 65.9979 57.6942 66.0629C53.4407 69.1004 48.5237 71.0063 43.416 72.0024C43.2391 72.038 43.2391 72.038 43.0586 72.0744C39.1365 72.8282 34.4942 72.8113 30.5839 72.0024C30.3748 71.9599 30.3748 71.9599 30.1615 71.9166C23.8341 70.5926 17.8652 67.8615 13.0853 63.46C12.7863 63.1852 12.4817 62.9191 12.1735 62.6546C11.1939 61.7967 10.3367 60.8768 9.52248 59.8604C9.31187 59.5982 9.09816 59.3385 8.88088 59.0818C5.17234 54.6877 2.81013 49.2237 1.64058 43.6294C1.6106 43.4912 1.58062 43.3531 1.54973 43.2108C0.628304 38.7955 0.679083 33.7735 1.64058 29.3715C1.6719 29.2252 1.70321 29.0789 1.73547 28.9282C3.06243 22.8812 5.83158 17.1564 10.0404 12.5858C10.3153 12.2868 10.5813 11.9822 10.8458 11.674C11.7037 10.6944 12.6236 9.83718 13.64 9.02298C13.9022 8.81236 14.1619 8.59866 14.4186 8.38137C18.9809 4.53084 24.7481 2.08497 30.5839 0.998501C30.7002 0.975366 30.8165 0.952231 30.9364 0.928395C32.9856 0.533931 35.0455 0.530041 37.1247 0.52621ZM29.8711 24.809C30.1778 27.7635 31.9715 30.2591 34.1573 32.1696C35.5623 33.2799 37.731 34.5044 39.5664 34.5044C39.2596 31.5499 37.4659 29.0543 35.2801 27.1438C33.8751 26.0335 31.7064 24.809 29.8711 24.809ZM19.748 27.8032C19.6576 27.8819 19.5672 27.9605 19.474 28.0416C17.7147 29.6718 16.4315 32.1159 16.1836 34.5044C19.1381 34.1976 21.6336 32.4039 23.5441 30.2181C24.6544 28.8131 25.8789 26.6444 25.8789 24.809C23.623 24.809 21.3445 26.3715 19.748 27.8032ZM27.7324 30.0844C27.5834 30.3255 27.4461 30.5736 27.3136 30.8241C25.3223 34.3274 21.8559 36.6525 18.0225 37.714C17.4161 37.8701 16.8032 37.9809 16.1836 38.0688C16.2373 40.5091 17.4526 42.6858 19.0351 44.4848C19.1301 44.5934 19.2252 44.7021 19.3231 44.814C21.4008 47.0382 24.4766 48.3453 27.4957 48.4815C30.6323 48.4547 33.4955 47.4468 35.8593 45.3403C35.9676 45.2455 36.0758 45.1506 36.1874 45.0529C37.8788 43.4754 39.1467 41.2 39.5664 38.9243C39.5727 38.6392 39.5743 38.3539 39.5664 38.0688C39.4026 38.0359 39.2388 38.003 39.0701 37.9691C37.7075 37.6867 36.4238 37.3522 35.1464 36.7856C35.0033 36.7228 34.8601 36.6599 34.7126 36.5951C31.9474 35.3002 29.6573 33.0804 28.2186 30.4036C28.1522 30.2983 28.0859 30.1929 28.0175 30.0844C27.9234 30.0844 27.8293 30.0844 27.7324 30.0844ZM21.7441 53.3247C21.7441 53.4188 21.7441 53.5129 21.7441 53.6098C24.7771 55.1612 27.9958 55.7724 31.3375 54.8011C32.2575 54.4655 33.1346 54.0555 34.0058 53.6098C34.0058 53.5157 34.0058 53.4216 34.0058 53.3247C30.1303 51.5026 25.6134 51.424 21.7441 53.3247ZM17.9034 55.9891C16.8338 57.0785 15.5239 58.556 15.0429 60.0258C15.611 62.0316 19.419 63.8614 21.1075 64.8122C27.5282 68.3371 34.8702 69.7793 42.1328 68.5805C42.2122 65.1361 41.836 62.0753 40.1367 59.0278C40.0589 58.8868 39.9812 58.7459 39.9011 58.6006C39.229 57.4684 38.3387 56.5468 37.4277 55.6059C36.8609 55.9165 36.2954 56.2268 35.7435 56.5633C32.2906 58.6617 28.0525 59.246 24.1145 58.306C22.1794 57.7926 20.4866 56.9729 18.8352 55.8515C18.3558 55.5058 18.3558 55.5058 17.9034 55.9891Z" fill="#202E44"/>
<path d="M56.3639 0.525681C56.5053 0.526071 56.5053 0.526071 56.6496 0.526469C58.0433 0.532938 59.327 0.594379 60.668 0.997971C60.84 1.04649 61.012 1.09501 61.1893 1.145C65.2344 2.38195 68.6804 5.01021 70.791 8.69719C70.8424 8.78527 70.8938 8.87335 70.9467 8.96411C72.9618 12.4823 73.5795 17.0465 72.6585 21.0007C71.4592 25.0509 69.2207 28.84 65.5156 31.082C65.3668 31.1751 65.2179 31.2683 65.0645 31.3643C61.524 33.5232 57.127 34.2494 53.049 33.479C52.7352 33.3999 52.4231 33.3139 52.1133 33.2206C51.9413 33.1721 51.7692 33.1236 51.592 33.0736C47.9164 31.9497 44.4111 29.5821 42.418 26.2343C42.3268 26.0908 42.2357 25.9472 42.1417 25.7993C39.9409 22.1855 39.1367 17.5664 40.0833 13.4112C40.1828 13.0231 40.2977 12.6425 40.4219 12.2616C40.4666 12.1185 40.4666 12.1185 40.5122 11.9724C41.6412 8.42987 44.0546 5.07249 47.2656 3.13664C47.343 3.08769 47.4203 3.03873 47.5 2.98829C48.6427 2.2684 49.7985 1.72226 51.0796 1.29204C51.1991 1.25179 51.3187 1.21154 51.4418 1.17007C53.0713 0.652042 54.6598 0.518228 56.3639 0.525681ZM55.1074 5.70305C54.8894 6.03332 54.7365 6.30866 54.5817 6.66545C54.4878 6.86718 54.3937 7.06878 54.2993 7.27029C54.248 7.38199 54.1966 7.49369 54.1437 7.60878C53.7194 8.50945 53.2574 9.3924 52.8063 10.2799C52.7349 10.4218 52.6636 10.5638 52.59 10.71C52.5256 10.8373 52.4612 10.9647 52.3948 11.0959C52.2365 11.3929 52.2365 11.3929 52.2559 11.6913C52.139 11.7064 52.0221 11.7214 51.9017 11.7369C50.5932 11.906 49.2856 12.0817 47.9785 12.2616C47.8377 12.2806 47.6969 12.2996 47.5518 12.3191C47.2182 12.3651 46.8855 12.4148 46.5528 12.4666C46.3763 12.4929 46.1999 12.5192 46.0181 12.5462C45.4264 12.729 45.1438 12.9742 44.6992 13.4023C44.4808 13.8392 44.524 14.2031 44.5567 14.6855C44.8524 15.2809 45.2707 15.7244 45.7396 16.1864C45.8126 16.2594 45.8856 16.3323 45.9608 16.4074C46.1148 16.561 46.2691 16.7142 46.4238 16.8671C46.6577 17.0984 46.8905 17.3309 47.1231 17.5635C47.2737 17.7135 47.4245 17.8634 47.5753 18.0132C47.6846 18.122 47.6846 18.122 47.7961 18.233C48.1855 18.6168 48.5836 18.9682 49.0167 19.3014C49.4043 19.6757 49.4043 19.6757 49.4645 20.0817C49.417 20.3086 49.417 20.3086 49.3687 20.5401C49.3347 20.7241 49.3007 20.908 49.2656 21.0976C49.232 21.2606 49.232 21.2606 49.1976 21.4268C49.0654 22.0802 48.9505 22.7365 48.835 23.393C48.7697 23.7622 48.7025 24.131 48.6331 24.4994C48.6018 24.672 48.5705 24.8446 48.5383 25.0224C48.5095 25.1768 48.4807 25.3312 48.451 25.4902C48.3831 26.187 48.4257 26.7493 48.7984 27.3482C49.147 27.6871 49.3602 27.8329 49.832 27.9452C50.6482 27.8874 51.284 27.5391 51.9975 27.17C52.1212 27.1075 52.2449 27.0451 52.3723 26.9807C53.0215 26.6512 53.6628 26.3107 54.2982 25.9553C54.4797 25.8552 54.4797 25.8552 54.6648 25.7531C54.8961 25.6248 55.126 25.4942 55.3543 25.3608C55.4592 25.3028 55.5641 25.2448 55.6722 25.185C55.763 25.1329 55.8539 25.0807 55.9475 25.027C56.7193 24.8321 57.5802 25.4654 58.2486 25.8205C58.4693 25.9359 58.6901 26.0513 58.9108 26.1666C59.2555 26.3477 59.6 26.5291 59.9442 26.7111C60.2785 26.8875 60.6135 27.0625 60.9487 27.2374C61.0507 27.2919 61.1528 27.3464 61.2579 27.4025C61.8197 27.6945 62.3061 27.9028 62.9492 27.9452C63.5352 27.7269 63.9371 27.5068 64.2324 26.9472C64.4162 26.1068 64.3234 25.4221 64.1656 24.593C64.1429 24.466 64.1202 24.339 64.0968 24.2082C64.0247 23.805 63.9505 23.4023 63.876 22.9996C63.8016 22.5953 63.7276 22.191 63.6551 21.7864C63.6101 21.5353 63.564 21.2844 63.5166 21.0337C63.4962 20.92 63.4757 20.8062 63.4547 20.689C63.4362 20.5894 63.4177 20.4898 63.3987 20.3872C63.3737 20.0604 63.4062 19.8407 63.5195 19.5331C63.8213 19.2234 64.1235 18.9371 64.4463 18.6509C64.6401 18.4746 64.8335 18.2978 65.0266 18.1207C65.18 17.9801 65.18 17.9801 65.3364 17.8367C65.9005 17.3115 66.4484 16.7705 66.9949 16.2271C67.1008 16.1229 67.2068 16.0188 67.316 15.9115C67.463 15.7647 67.463 15.7647 67.6131 15.615C67.7003 15.5284 67.7875 15.4418 67.8773 15.3526C68.185 14.9928 68.2254 14.6786 68.2781 14.2132C68.2095 13.5385 67.9969 13.2955 67.5117 12.832C66.8665 12.5007 66.1751 12.4314 65.4655 12.3318C65.3378 12.3132 65.2101 12.2946 65.0785 12.2755C64.8094 12.2365 64.5402 12.198 64.271 12.1598C63.8585 12.1013 63.4462 12.0415 63.0339 11.9815C62.7721 11.9437 62.5104 11.906 62.2486 11.8684C62.1252 11.8506 62.0018 11.8328 61.8746 11.8144C61.7599 11.7982 61.6452 11.782 61.527 11.7653C61.3759 11.7438 61.3759 11.7438 61.2217 11.7219C60.9274 11.6833 60.9274 11.6833 60.5254 11.6913C60.4936 11.5811 60.4618 11.4708 60.4291 11.3572C60.1747 10.6548 59.8393 10.0038 59.5006 9.33879C58.6715 7.70785 58.6715 7.70785 58.3817 7.06979C57.9412 6.04305 57.9412 6.04305 57.1481 5.29314C56.3226 5.01279 55.7737 5.17574 55.1074 5.70305Z" fill="#FF7800"/>
<path d="M56.248 10.6934C56.3421 10.6934 56.4363 10.6934 56.5332 10.6934C56.5828 10.7948 56.6324 10.8962 56.6835 11.0007C56.9087 11.4601 57.1353 11.9188 57.3619 12.3776C57.44 12.5372 57.518 12.6968 57.5984 12.8613C57.6742 13.0143 57.75 13.1673 57.8281 13.3249C57.8975 13.466 57.967 13.6072 58.0385 13.7526C58.342 14.2878 58.5189 14.4998 59.1163 14.6683C59.3815 14.7165 59.3815 14.7165 59.6521 14.7657C59.793 14.792 59.793 14.792 59.9368 14.8189C60.7235 14.963 61.5139 15.0835 62.3059 15.1946C62.6641 15.2559 62.6641 15.2559 62.9492 15.3984C62.7335 15.9264 62.4244 16.214 61.9957 16.5836C61.323 17.1755 61.323 17.1755 60.668 17.7866C60.5915 17.8594 60.5151 17.9322 60.4363 18.0072C60.1048 18.4178 59.9439 18.7399 59.971 19.2799C60.0184 19.6635 60.0778 20.0432 60.1422 20.4243C60.1834 20.6835 60.2245 20.9426 60.2653 21.2018C60.2854 21.3273 60.3056 21.4527 60.3264 21.5819C60.4093 22.1333 60.4682 22.6857 60.5254 23.2402C59.6745 22.9357 58.8961 22.4699 58.1069 22.0347C57.2264 21.5475 57.2264 21.5475 56.248 21.3867C55.885 21.5106 55.5863 21.6382 55.25 21.8145C55.1416 21.8704 55.0333 21.9263 54.9216 21.984C54.439 22.2367 53.9596 22.4954 53.4803 22.7543C53.3051 22.8479 53.3051 22.8479 53.1264 22.9434C53.0207 23.0004 52.9151 23.0574 52.8062 23.1161C52.541 23.2402 52.541 23.2402 52.2559 23.2402C52.2681 23.1563 52.2803 23.0723 52.2929 22.9857C52.3491 22.5983 52.4049 22.2108 52.4608 21.8234C52.48 21.6913 52.4992 21.5593 52.519 21.4232C52.5571 21.1587 52.5941 20.8941 52.6301 20.6293C52.6645 20.3828 52.7023 20.1366 52.7444 19.8912C52.8573 19.159 52.835 18.7423 52.3984 18.1074C52.1118 17.7744 51.8057 17.4677 51.4895 17.1628C51.409 17.0831 51.3285 17.0033 51.2456 16.9211C50.8853 16.5675 50.5282 16.2409 50.1294 15.9298C50.0313 15.8485 49.9332 15.7673 49.832 15.6836C49.832 15.5895 49.832 15.4954 49.832 15.3984C50.4677 15.2454 51.1005 15.113 51.7468 15.0141C51.916 14.9879 51.916 14.9879 52.0886 14.9611C52.3159 14.9264 52.5435 14.8929 52.7712 14.8608C53.3958 14.7647 53.9062 14.684 54.3945 14.2578C54.6744 13.8326 54.9001 13.3861 55.1252 12.9301C55.1864 12.8099 55.2476 12.6898 55.3107 12.5661C55.4826 12.2279 55.6518 11.8887 55.8203 11.5488C55.906 11.3774 55.9918 11.2061 56.0776 11.0348C56.1339 10.9221 56.1901 10.8094 56.248 10.6934Z" fill="#FF7800"/>
<path d="M51.4004 49.6174C51.8461 49.8558 52.1693 50.1572 52.3985 50.6155C52.4087 51.0266 52.4117 51.4342 52.4074 51.8452C52.4068 51.9595 52.4061 52.0738 52.4054 52.1916C52.4038 52.4742 52.4012 52.7567 52.3985 53.0393C52.5635 53.031 52.7286 53.0227 52.8986 53.0142C53.1181 53.0075 53.3375 53.001 53.5569 52.9947C53.6654 52.9888 53.7738 52.9828 53.8855 52.9766C54.4795 52.9638 54.8501 52.9981 55.3202 53.3807C55.868 53.9498 55.876 54.3321 55.8716 55.0994C55.7891 55.6853 55.5353 55.9213 55.1075 56.3186C54.6355 56.5545 54.1107 56.4755 53.5926 56.4701C53.4783 56.4694 53.3639 56.4688 53.2462 56.4681C52.9636 56.4664 52.681 56.4639 52.3985 56.4612C52.4068 56.6262 52.415 56.7913 52.4236 56.9613C52.4302 57.1807 52.4367 57.4002 52.443 57.6196C52.452 57.7823 52.452 57.7823 52.4611 57.9482C52.4739 58.5422 52.4397 58.9128 52.0571 59.3829C51.4879 59.9307 51.1057 59.9387 50.3383 59.9343C49.7524 59.8517 49.5165 59.598 49.1192 59.1701C48.8832 58.6982 48.9622 58.1733 48.9677 57.6553C48.9683 57.5409 48.969 57.4266 48.9697 57.3088C48.9713 57.0263 48.9739 56.7437 48.9766 56.4612C48.8116 56.4694 48.6465 56.4777 48.4765 56.4862C48.257 56.4929 48.0376 56.4994 47.8182 56.5057C47.7097 56.5117 47.6013 56.5177 47.4896 56.5238C46.8956 56.5366 46.525 56.5023 46.0549 56.1198C45.5071 55.5506 45.4991 55.1684 45.5035 54.401C45.586 53.8151 45.8398 53.5792 46.2676 53.1819C46.7396 52.9459 47.2644 53.0249 47.7825 53.0304C47.8968 53.031 48.0112 53.0317 48.1289 53.0323C48.4115 53.034 48.6941 53.0366 48.9766 53.0393C48.9683 52.8742 48.9601 52.7092 48.9516 52.5391C48.9449 52.3197 48.9384 52.1003 48.9321 51.8808C48.9261 51.7724 48.9201 51.664 48.914 51.5522C48.9012 50.9582 48.9354 50.5877 49.318 50.1175C49.9498 49.5094 50.5492 49.4975 51.4004 49.6174Z" fill="#202E44"/>
<path d="M60.5254 37.0705C60.9711 37.3089 61.2943 37.6103 61.5235 38.0686C61.5337 38.4797 61.5367 38.8873 61.5324 39.2983C61.5318 39.4126 61.5311 39.527 61.5304 39.6447C61.5288 39.9273 61.5262 40.2099 61.5235 40.4924C61.6885 40.4841 61.8536 40.4759 62.0236 40.4673C62.2431 40.4607 62.4625 40.4542 62.6819 40.4479C62.7904 40.4419 62.8988 40.4359 63.0105 40.4298C63.6045 40.417 63.9751 40.4512 64.4452 40.8338C64.993 41.403 65.001 41.7852 64.9966 42.5526C64.9141 43.1385 64.6603 43.3744 64.2325 43.7717C63.7605 44.0077 63.2357 43.9287 62.7176 43.9232C62.6033 43.9226 62.4889 43.9219 62.3712 43.9212C62.0886 43.9196 61.806 43.917 61.5235 43.9143C61.5318 44.0793 61.54 44.2444 61.5486 44.4144C61.5552 44.6339 61.5617 44.8533 61.568 45.0727C61.577 45.2354 61.577 45.2354 61.5861 45.4013C61.5989 45.9953 61.5647 46.3659 61.1821 46.836C60.6129 47.3838 60.2307 47.3918 59.4633 47.3874C58.8774 47.3049 58.6415 47.0511 58.2442 46.6233C58.0082 46.1513 58.0872 45.6265 58.0927 45.1084C58.0933 44.9941 58.094 44.8797 58.0947 44.762C58.0963 44.4794 58.0989 44.1968 58.1016 43.9143C57.9366 43.9226 57.7715 43.9308 57.6015 43.9393C57.382 43.946 57.1626 43.9525 56.9432 43.9588C56.8347 43.9648 56.7263 43.9708 56.6146 43.9769C56.0206 43.9897 55.65 43.9555 55.1799 43.5729C54.6321 43.0037 54.6241 42.6215 54.6285 41.8541C54.711 41.2682 54.9648 41.0323 55.3926 40.635C55.8646 40.399 56.3894 40.478 56.9075 40.4835C57.0218 40.4841 57.1362 40.4848 57.2539 40.4854C57.5365 40.4871 57.8191 40.4897 58.1016 40.4924C58.0933 40.3274 58.0851 40.1623 58.0766 39.9923C58.0699 39.7728 58.0634 39.5534 58.0571 39.334C58.0511 39.2255 58.0451 39.1171 58.039 39.0054C58.0262 38.4113 58.0604 38.0408 58.443 37.5707C59.0748 36.9626 59.6742 36.9506 60.5254 37.0705Z" fill="#202E44"/>
<path d="M28.5879 8.55491C29.0336 8.79331 29.3568 9.09466 29.586 9.55296C29.5962 9.96411 29.5992 10.3717 29.5949 10.7827C29.5943 10.897 29.5936 11.0113 29.5929 11.1291C29.5913 11.4117 29.5887 11.6942 29.586 11.9768C29.751 11.9685 29.9161 11.9602 30.0861 11.9517C30.3056 11.945 30.525 11.9385 30.7444 11.9322C30.8529 11.9263 30.9613 11.9203 31.073 11.9141C31.667 11.9013 32.0376 11.9356 32.5077 12.3182C33.0555 12.8873 33.0635 13.2696 33.0591 14.0369C32.9766 14.6228 32.7228 14.8588 32.295 15.2561C31.823 15.492 31.2982 15.413 30.7801 15.4076C30.6658 15.4069 30.5514 15.4063 30.4337 15.4056C30.1511 15.4039 29.8685 15.4014 29.586 15.3987C29.5943 15.5637 29.6025 15.7288 29.6111 15.8988C29.6177 16.1182 29.6242 16.3377 29.6305 16.5571C29.6395 16.7198 29.6395 16.7198 29.6486 16.8857C29.6614 17.4797 29.6272 17.8503 29.2446 18.3204C28.6754 18.8682 28.2932 18.8762 27.5258 18.8718C26.9399 18.7892 26.704 18.5355 26.3067 18.1076C26.0707 17.6357 26.1497 17.1108 26.1552 16.5928C26.1558 16.4784 26.1565 16.3641 26.1572 16.2463C26.1588 15.9638 26.1614 15.6812 26.1641 15.3987C25.9991 15.4069 25.834 15.4152 25.664 15.4237C25.4445 15.4304 25.2251 15.4369 25.0057 15.4432C24.8972 15.4492 24.7888 15.4552 24.6771 15.4613C24.0831 15.4741 23.7125 15.4398 23.2424 15.0573C22.6946 14.4881 22.6866 14.1059 22.691 13.3385C22.7735 12.7526 23.0273 12.5167 23.4551 12.1194C23.9271 11.8834 24.4519 11.9624 24.97 11.9679C25.0843 11.9685 25.1987 11.9692 25.3164 11.9698C25.599 11.9715 25.8816 11.9741 26.1641 11.9768C26.1558 11.8117 26.1476 11.6467 26.1391 11.4766C26.1324 11.2572 26.1259 11.0378 26.1196 10.8183C26.1136 10.7099 26.1076 10.6015 26.1015 10.4897C26.0887 9.89572 26.1229 9.52517 26.5055 9.05505C27.1373 8.44694 27.7367 8.43498 28.5879 8.55491Z" fill="#202E44"/>
<path d="M24.4069 40.0383C24.6773 40.2413 24.9476 40.4444 25.2178 40.6476C26.3784 41.4884 27.6298 41.4683 29.0156 41.3477C30.0525 41.1233 30.8187 40.5374 31.6333 39.8801C32.061 39.6036 32.3595 39.5275 32.8652 39.4941C33.5896 39.7189 34.0722 39.9553 34.4336 40.6348C34.5675 41.2609 34.578 41.8031 34.2593 42.3713C33.0348 43.8592 31.2962 44.6531 29.4434 45.0547C26.8694 45.2556 24.5463 44.9694 22.4754 43.2986C21.3467 42.3012 21.3467 42.3012 21.2774 41.7509C21.2335 40.6354 21.2335 40.6354 21.6194 40.1357C22.5432 39.3324 23.4184 39.3672 24.4069 40.0383Z" fill="#202E44"/>
</g>
<defs>
<clipPath id="clip0_50_416">
<rect width="73" height="73" fill="white" transform="translate(0.5)"/>
</clipPath>
</defs>
</svg>
